<svg width="26" height="32" viewBox="0 0 26 32" fill="none" xmlns="http://www.w3.org/2000/svg">
<path d="M3.57122 27.3455C2.76312 27.3455 2.13981 27.1294 1.70131 26.6972C1.26281 26.2587 1.04355 25.5978 1.04355 24.7145V20.8995C1.04355 20.8306 1.06235 20.7774 1.09993 20.7398C1.13752 20.6959 1.18763 20.674 1.25028 20.674H1.70131C1.77022 20.674 1.82347 20.6959 1.86105 20.7398C1.9049 20.7774 1.92683 20.8306 1.92683 20.8995V24.7333C1.92683 25.3472 2.06777 25.8045 2.34967 26.1052C2.63783 26.4059 3.04501 26.5562 3.57122 26.5562C4.09116 26.5562 4.49208 26.4059 4.77397 26.1052C5.06213 25.7982 5.20621 25.3409 5.20621 24.7333V20.8995C5.20621 20.8306 5.225 20.7774 5.26259 20.7398C5.30018 20.6959 5.35342 20.674 5.42233 20.674H5.87336C5.93601 20.674 5.98612 20.6959 6.02371 20.7398C6.06756 20.7774 6.08948 20.8306 6.08948 20.8995V24.7145C6.08948 25.5978 5.87023 26.2587 5.43173 26.6972C4.99949 27.1294 4.37932 27.3455 3.57122 27.3455ZM9.19305 27.3455C8.76081 27.3455 8.39434 27.2766 8.09366 27.1388C7.79923 26.9947 7.57998 26.8319 7.4359 26.6502C7.29182 26.4685 7.21978 26.3182 7.21978 26.1992C7.21978 26.1365 7.24171 26.0895 7.28556 26.0582C7.32941 26.0206 7.37639 26.0018 7.4265 26.0018H7.82116C7.85874 26.0018 7.88693 26.0081 7.90573 26.0206C7.93078 26.0332 7.9621 26.0613 7.99969 26.1052C8.14377 26.2806 8.30351 26.4184 8.47891 26.5186C8.66058 26.6189 8.90176 26.669 9.20244 26.669C9.54072 26.669 9.81009 26.6063 10.0105 26.4811C10.2173 26.3558 10.3206 26.1741 10.3206 25.9361C10.3206 25.7795 10.2768 25.6542 10.1891 25.5602C10.1014 25.4662 9.95417 25.3817 9.74744 25.3065C9.54698 25.2313 9.24629 25.1499 8.84538 25.0622C8.30038 24.9432 7.91512 24.7709 7.68961 24.5454C7.46409 24.3199 7.35133 24.0286 7.35133 23.6715C7.35133 23.4397 7.42024 23.2173 7.55805 23.0043C7.69587 22.7851 7.89946 22.6097 8.16883 22.4781C8.44446 22.3403 8.7702 22.2714 9.14607 22.2714C9.54072 22.2714 9.87586 22.3372 10.1515 22.4687C10.4334 22.6003 10.6432 22.7538 10.7811 22.9292C10.9251 23.1046 10.9972 23.2518 10.9972 23.3708C10.9972 23.4272 10.9753 23.4742 10.9314 23.5118C10.8938 23.5493 10.8468 23.5681 10.7905 23.5681H10.4334C10.3457 23.5681 10.283 23.5337 10.2455 23.4648C10.139 23.3458 10.0481 23.2549 9.97296 23.1923C9.90405 23.1234 9.80069 23.067 9.66287 23.0231C9.52506 22.973 9.35279 22.948 9.14607 22.948C8.83911 22.948 8.6042 23.0137 8.44133 23.1453C8.27845 23.2706 8.19702 23.4397 8.19702 23.6527C8.19702 23.7843 8.23147 23.897 8.30038 23.991C8.36929 24.0787 8.50084 24.1633 8.69503 24.2447C8.88923 24.3199 9.17739 24.3982 9.55951 24.4796C10.1546 24.6049 10.5743 24.7834 10.8186 25.0152C11.0692 25.247 11.1945 25.5445 11.1945 25.9079C11.1945 26.1772 11.1162 26.4215 10.9596 26.6408C10.8092 26.8601 10.5806 27.0323 10.2736 27.1576C9.97296 27.2829 9.61276 27.3455 9.19305 27.3455ZM14.2278 27.3455C13.5889 27.3455 13.0783 27.1482 12.6962 26.7536C12.3141 26.3526 12.1042 25.8076 12.0666 25.1186L12.0572 24.7991L12.0666 24.489C12.1042 23.8124 12.3141 23.2737 12.6962 22.8728C13.0783 22.4719 13.5889 22.2714 14.2278 22.2714C14.9169 22.2714 15.4494 22.4907 15.8252 22.9292C16.2073 23.3677 16.3984 23.9628 16.3984 24.7145V24.8837C16.3984 24.9463 16.3765 24.9995 16.3326 25.0434C16.295 25.081 16.2449 25.0998 16.1823 25.0998H12.9217V25.1843C12.9405 25.5915 13.0658 25.9392 13.2976 26.2274C13.5293 26.5155 13.8363 26.6596 14.2184 26.6596C14.5128 26.6596 14.7509 26.6032 14.9326 26.4905C15.1205 26.3714 15.2614 26.2493 15.3554 26.124C15.4118 26.0488 15.4556 26.005 15.4869 25.9924C15.5183 25.9736 15.5715 25.9642 15.6467 25.9642H16.0601C16.1165 25.9642 16.1635 25.9799 16.2011 26.0112C16.2449 26.0426 16.2669 26.0833 16.2669 26.1334C16.2669 26.2712 16.1823 26.4372 16.0132 26.6314C15.844 26.8256 15.6028 26.9947 15.2896 27.1388C14.9827 27.2766 14.6287 27.3455 14.2278 27.3455ZM15.5433 24.4608V24.4326C15.5433 23.9941 15.4243 23.637 15.1863 23.3614C14.9482 23.0858 14.6287 22.948 14.2278 22.948C13.8206 22.948 13.5012 23.0858 13.2694 23.3614C13.0376 23.637 12.9217 23.9941 12.9217 24.4326V24.4608H15.5433ZM17.7571 27.2516C17.6944 27.2516 17.6412 27.2328 17.5973 27.1952C17.5598 27.1513 17.541 27.0981 17.541 27.0355V22.5909C17.541 22.5283 17.5598 22.475 17.5973 22.4312C17.6412 22.3873 17.6944 22.3654 17.7571 22.3654H18.1517C18.2207 22.3654 18.2739 22.3873 18.3115 22.4312C18.3553 22.4687 18.3773 22.522 18.3773 22.5909V23.0043C18.6341 22.5784 19.0695 22.3654 19.6834 22.3654H20.0498C20.1187 22.3654 20.172 22.3842 20.2096 22.4218C20.2472 22.4593 20.266 22.5126 20.266 22.5815V22.9292C20.266 22.9918 20.2472 23.0451 20.2096 23.0889C20.172 23.1265 20.1187 23.1453 20.0498 23.1453H19.5142C19.1697 23.1453 18.8972 23.2455 18.6967 23.446C18.5025 23.6464 18.4054 23.9189 18.4054 24.2635V27.0355C18.4054 27.0981 18.3835 27.1513 18.3397 27.1952C18.2958 27.2328 18.2426 27.2516 18.1799 27.2516H17.7571ZM22.7464 27.3455C22.3142 27.3455 21.9477 27.2766 21.647 27.1388C21.3526 26.9947 21.1333 26.8319 20.9893 26.6502C20.8452 26.4685 20.7731 26.3182 20.7731 26.1992C20.7731 26.1365 20.7951 26.0895 20.8389 26.0582C20.8828 26.0206 20.9298 26.0018 20.9799 26.0018H21.3745C21.4121 26.0018 21.4403 26.0081 21.4591 26.0206C21.4842 26.0332 21.5155 26.0613 21.5531 26.1052C21.6971 26.2806 21.8569 26.4184 22.0323 26.5186C22.2139 26.6189 22.4551 26.669 22.7558 26.669C23.0941 26.669 23.3635 26.6063 23.5639 26.4811C23.7706 26.3558 23.874 26.1741 23.874 25.9361C23.874 25.7795 23.8301 25.6542 23.7424 25.5602C23.6547 25.4662 23.5075 25.3817 23.3008 25.3065C23.1004 25.2313 22.7997 25.1499 22.3987 25.0622C21.8537 24.9432 21.4685 24.7709 21.243 24.5454C21.0175 24.3199 20.9047 24.0286 20.9047 23.6715C20.9047 23.4397 20.9736 23.2173 21.1114 23.0043C21.2492 22.7851 21.4528 22.6097 21.7222 22.4781C21.9978 22.3403 22.3236 22.2714 22.6994 22.2714C23.0941 22.2714 23.4292 22.3372 23.7049 22.4687C23.9868 22.6003 24.1966 22.7538 24.3344 22.9292C24.4785 23.1046 24.5505 23.2518 24.5505 23.3708C24.5505 23.4272 24.5286 23.4742 24.4848 23.5118C24.4472 23.5493 24.4002 23.5681 24.3438 23.5681H23.9868C23.8991 23.5681 23.8364 23.5337 23.7988 23.4648C23.6923 23.3458 23.6015 23.2549 23.5263 23.1923C23.4574 23.1234 23.3541 23.067 23.2162 23.0231C23.0784 22.973 22.9062 22.948 22.6994 22.948C22.3925 22.948 22.1576 23.0137 21.9947 23.1453C21.8318 23.2706 21.7504 23.4397 21.7504 23.6527C21.7504 23.7843 21.7848 23.897 21.8537 23.991C21.9227 24.0787 22.0542 24.1633 22.2484 24.2447C22.4426 24.3199 22.7308 24.3982 23.1129 24.4796C23.708 24.6049 24.1277 24.7834 24.372 25.0152C24.6226 25.247 24.7479 25.5445 24.7479 25.9079C24.7479 26.1772 24.6696 26.4215 24.513 26.6408C24.3626 26.8601 24.134 27.0323 23.827 27.1576C23.5263 27.2829 23.1661 27.3455 22.7464 27.3455Z" fill="#4F5665"/>
<path d="M2.29323 11.8076C2.22276 11.8076 2.16403 11.7841 2.11705 11.7371C2.07006 11.6823 2.04657 11.6197 2.04657 11.5492C2.04657 11.4944 2.06223 11.4435 2.09355 11.3965L3.73794 9.1531C3.63615 9.17659 3.53044 9.18442 3.42081 9.17659C2.94316 9.14527 2.48899 9.01607 2.05832 8.78899C1.62764 8.55407 1.27527 8.23303 1.00121 7.82584C0.734975 7.41083 0.601858 6.94101 0.601858 6.41637C0.601858 5.89956 0.73106 5.41799 0.989464 4.97165C1.2557 4.51749 1.6433 4.15337 2.15228 3.87931C2.66909 3.60524 3.28769 3.46821 4.00809 3.46821C4.73632 3.46821 5.36276 3.5935 5.8874 3.84407C6.41204 4.09465 6.80747 4.43918 7.07371 4.87769C7.34777 5.30836 7.4848 5.79385 7.4848 6.33415C7.4848 6.76482 7.39475 7.16026 7.21465 7.52046C7.04238 7.87283 6.78007 8.28784 6.4277 8.7655L6.21627 9.05914L4.37221 11.5727C4.26258 11.7293 4.12164 11.8076 3.94937 11.8076H2.29323ZM4.03159 7.57919C4.37612 7.57919 4.65802 7.47348 4.87727 7.26205C5.10435 7.05063 5.2179 6.76482 5.2179 6.40462C5.2179 6.04442 5.10435 5.75861 4.87727 5.54719C4.65019 5.33577 4.36829 5.23006 4.03159 5.23006C3.68705 5.23006 3.40124 5.33577 3.17415 5.54719C2.9549 5.75861 2.84528 6.04442 2.84528 6.40462C2.84528 6.76482 2.9549 7.05063 3.17415 7.26205C3.39341 7.47348 3.67922 7.57919 4.03159 7.57919ZM11.8716 11.9251C10.791 11.9172 9.96882 11.6314 9.40503 11.0676C8.84124 10.5039 8.53194 9.75996 8.47713 8.83597C8.46147 8.41313 8.45364 8.03335 8.45364 7.69664C8.45364 7.3521 8.46147 6.96058 8.47713 6.52208C8.50845 5.9348 8.65331 5.41407 8.91172 4.95991C9.17795 4.49791 9.55773 4.1338 10.051 3.86756C10.5522 3.60133 11.159 3.46821 11.8716 3.46821C12.5842 3.46821 13.191 3.60133 13.6922 3.86756C14.1933 4.1338 14.5731 4.49791 14.8315 4.95991C15.0978 5.41407 15.2465 5.9348 15.2779 6.52208C15.2935 6.74133 15.3013 7.13285 15.3013 7.69664C15.3013 8.24477 15.2935 8.62455 15.2779 8.83597C15.223 9.75996 14.9137 10.5039 14.3499 11.0676C13.7862 11.6314 12.96 11.9172 11.8716 11.9251ZM11.8716 10.1515C12.2396 10.1515 12.5137 10.034 12.6938 9.79911C12.8739 9.55637 12.9718 9.21575 12.9875 8.77724C13.0031 8.55016 13.0109 8.18213 13.0109 7.67315C13.0109 7.16417 13.0031 6.80397 12.9875 6.59255C12.9718 6.16971 12.8739 5.83692 12.6938 5.59417C12.5137 5.3436 12.2396 5.21831 11.8716 5.21831C11.1669 5.21831 10.7949 5.67639 10.7558 6.59255C10.748 6.80397 10.744 7.16417 10.744 7.67315C10.744 8.18213 10.748 8.55016 10.7558 8.77724C10.7949 9.6934 11.1669 10.1515 11.8716 10.1515ZM18.9495 11.42C18.8712 11.42 18.8007 11.3926 18.738 11.3378C18.6832 11.2751 18.6558 11.2047 18.6558 11.1264V9.00041H16.5886C16.5103 9.00041 16.4398 8.973 16.3772 8.91819C16.3224 8.85555 16.295 8.78507 16.295 8.70677V7.80235C16.295 7.71622 16.3224 7.64574 16.3772 7.59093C16.432 7.52829 16.5025 7.49697 16.5886 7.49697H18.6558V5.44148C18.6558 5.35534 18.6832 5.28487 18.738 5.23006C18.8007 5.17524 18.8712 5.14784 18.9495 5.14784H19.9596C20.0457 5.14784 20.1162 5.17524 20.171 5.23006C20.2337 5.28487 20.265 5.35534 20.265 5.44148V7.49697H22.3087C22.3949 7.49697 22.4653 7.52829 22.5201 7.59093C22.5828 7.64574 22.6141 7.71622 22.6141 7.80235V8.70677C22.6141 8.7929 22.5828 8.86338 22.5201 8.91819C22.4653 8.973 22.3949 9.00041 22.3087 9.00041H20.265V11.1264C20.265 11.2125 20.2337 11.283 20.171 11.3378C20.1162 11.3926 20.0457 11.42 19.9596 11.42H18.9495Z" fill="#0B132A"/>
</svg>
