<svg width="34" height="32" viewBox="0 0 34 32" fill="none" xmlns="http://www.w3.org/2000/svg">
<path d="M3.17647 27.3455C2.66279 27.3455 2.21489 27.2641 1.83276 27.1012C1.4569 26.9384 1.16874 26.7254 0.968285 26.4623C0.774091 26.1929 0.670729 25.9047 0.6582 25.5978C0.6582 25.5477 0.676993 25.5038 0.71458 25.4662C0.752166 25.4286 0.799148 25.4099 0.855527 25.4099H1.31596C1.42871 25.4099 1.50702 25.4725 1.55087 25.5978C1.60725 25.8609 1.76699 26.0895 2.03009 26.2837C2.29946 26.4717 2.68158 26.5656 3.17647 26.5656C3.70894 26.5656 4.10672 26.4717 4.36982 26.2837C4.63293 26.0958 4.76448 25.8358 4.76448 25.5038C4.76448 25.2908 4.6987 25.1154 4.56715 24.9776C4.44186 24.8398 4.2508 24.7208 3.99396 24.6205C3.74339 24.5141 3.3644 24.3856 2.85698 24.2353C2.37463 24.0975 1.98937 23.9503 1.70121 23.7937C1.41932 23.637 1.20633 23.446 1.06225 23.2205C0.918171 22.9887 0.846131 22.6974 0.846131 22.3466C0.846131 22.0083 0.936964 21.7076 1.11863 21.4445C1.3003 21.1752 1.5634 20.9653 1.90794 20.815C2.25248 20.6584 2.65966 20.58 3.12948 20.58C3.6181 20.58 4.03468 20.6677 4.37922 20.8431C4.73002 21.0123 4.99626 21.2284 5.17792 21.4915C5.35959 21.7483 5.45669 22.0083 5.46922 22.2714C5.46922 22.3278 5.45042 22.3748 5.41284 22.4124C5.37525 22.45 5.32827 22.4687 5.27189 22.4687H4.80206C4.75195 22.4687 4.70497 22.4531 4.66112 22.4218C4.61726 22.3904 4.58594 22.3435 4.56715 22.2808C4.52956 22.0114 4.37922 21.7891 4.11612 21.6137C3.85302 21.4383 3.52414 21.3506 3.12948 21.3506C2.70351 21.3506 2.36523 21.4351 2.11466 21.6043C1.86409 21.7671 1.7388 22.0114 1.7388 22.3372C1.7388 22.5564 1.79518 22.735 1.90794 22.8728C2.02696 23.0106 2.20549 23.1328 2.44354 23.2393C2.68785 23.3458 3.04178 23.4679 3.50534 23.6057C4.03781 23.7561 4.45439 23.9064 4.75508 24.0568C5.06203 24.2071 5.29068 24.395 5.44103 24.6205C5.59137 24.8398 5.66654 25.1248 5.66654 25.4756C5.66654 26.0645 5.44103 26.5249 4.98999 26.8569C4.54522 27.1827 3.94072 27.3455 3.17647 27.3455ZM8.72151 27.3455C8.08255 27.3455 7.572 27.1482 7.18988 26.7536C6.80775 26.3526 6.5979 25.8076 6.56031 25.1186L6.55092 24.7991L6.56031 24.489C6.5979 23.8124 6.80775 23.2737 7.18988 22.8728C7.572 22.4719 8.08255 22.2714 8.72151 22.2714C9.41059 22.2714 9.94306 22.4907 10.3189 22.9292C10.701 23.3677 10.8921 23.9628 10.8921 24.7145V24.8837C10.8921 24.9463 10.8702 24.9995 10.8263 25.0434C10.7887 25.081 10.7386 25.0998 10.676 25.0998H7.41539V25.1843C7.43419 25.5915 7.55947 25.9392 7.79125 26.2274C8.02304 26.5155 8.32999 26.6596 8.71211 26.6596C9.00654 26.6596 9.24458 26.6032 9.42625 26.4905C9.61418 26.3714 9.75513 26.2493 9.84909 26.124C9.90547 26.0488 9.94932 26.005 9.98064 25.9924C10.012 25.9736 10.0652 25.9642 10.1404 25.9642H10.5538C10.6102 25.9642 10.6572 25.9799 10.6948 26.0112C10.7386 26.0426 10.7606 26.0833 10.7606 26.1334C10.7606 26.2712 10.676 26.4372 10.5068 26.6314C10.3377 26.8256 10.0965 26.9947 9.78332 27.1388C9.47636 27.2766 9.12243 27.3455 8.72151 27.3455ZM10.037 24.4608V24.4326C10.037 23.9941 9.918 23.637 9.67995 23.3614C9.44191 23.0858 9.12243 22.948 8.72151 22.948C8.31433 22.948 7.99485 23.0858 7.76307 23.3614C7.53128 23.637 7.41539 23.9941 7.41539 24.4326V24.4608H10.037ZM12.2508 27.2516C12.1881 27.2516 12.1349 27.2328 12.091 27.1952C12.0535 27.1513 12.0347 27.0981 12.0347 27.0355V22.5909C12.0347 22.5283 12.0535 22.475 12.091 22.4312C12.1349 22.3873 12.1881 22.3654 12.2508 22.3654H12.6454C12.7143 22.3654 12.7676 22.3873 12.8052 22.4312C12.849 22.4687 12.871 22.522 12.871 22.5909V23.0043C13.1278 22.5784 13.5632 22.3654 14.1771 22.3654H14.5435C14.6124 22.3654 14.6657 22.3842 14.7033 22.4218C14.7409 22.4593 14.7597 22.5126 14.7597 22.5815V22.9292C14.7597 22.9918 14.7409 23.0451 14.7033 23.0889C14.6657 23.1265 14.6124 23.1453 14.5435 23.1453H14.0079C13.6634 23.1453 13.3909 23.2455 13.1904 23.446C12.9962 23.6464 12.8991 23.9189 12.8991 24.2635V27.0355C12.8991 27.0981 12.8772 27.1513 12.8334 27.1952C12.7895 27.2328 12.7363 27.2516 12.6736 27.2516H12.2508ZM17.2683 27.2516C17.1054 27.2516 16.9895 27.1733 16.9206 27.0167L15.1729 22.6567C15.1666 22.6379 15.1635 22.6066 15.1635 22.5627C15.1635 22.5063 15.1823 22.4593 15.2199 22.4218C15.2574 22.3842 15.3013 22.3654 15.3514 22.3654H15.7837C15.8839 22.3654 15.9591 22.4155 16.0092 22.5157L17.4562 26.2649L18.9033 22.5157C18.9158 22.4781 18.9409 22.4437 18.9785 22.4124C19.0223 22.381 19.0724 22.3654 19.1288 22.3654H19.561C19.6112 22.3654 19.655 22.3842 19.6926 22.4218C19.7302 22.4593 19.749 22.5063 19.749 22.5627L19.7302 22.6567L17.9918 27.0167C17.9229 27.1733 17.807 27.2516 17.6442 27.2516H17.2683ZM22.5135 27.3455C21.8745 27.3455 21.364 27.1482 20.9818 26.7536C20.5997 26.3526 20.3898 25.8076 20.3523 25.1186L20.3429 24.7991L20.3523 24.489C20.3898 23.8124 20.5997 23.2737 20.9818 22.8728C21.364 22.4719 21.8745 22.2714 22.5135 22.2714C23.2025 22.2714 23.735 22.4907 24.1109 22.9292C24.493 23.3677 24.6841 23.9628 24.6841 24.7145V24.8837C24.6841 24.9463 24.6621 24.9995 24.6183 25.0434C24.5807 25.081 24.5306 25.0998 24.4679 25.0998H21.2073V25.1843C21.2261 25.5915 21.3514 25.9392 21.5832 26.2274C21.815 26.5155 22.1219 26.6596 22.5041 26.6596C22.7985 26.6596 23.0365 26.6032 23.2182 26.4905C23.4061 26.3714 23.5471 26.2493 23.641 26.124C23.6974 26.0488 23.7413 26.005 23.7726 25.9924C23.8039 25.9736 23.8572 25.9642 23.9323 25.9642H24.3458C24.4022 25.9642 24.4491 25.9799 24.4867 26.0112C24.5306 26.0426 24.5525 26.0833 24.5525 26.1334C24.5525 26.2712 24.4679 26.4372 24.2988 26.6314C24.1297 26.8256 23.8885 26.9947 23.5753 27.1388C23.2683 27.2766 22.9144 27.3455 22.5135 27.3455ZM23.829 24.4608V24.4326C23.829 23.9941 23.71 23.637 23.4719 23.3614C23.2339 23.0858 22.9144 22.948 22.5135 22.948C22.1063 22.948 21.7868 23.0858 21.555 23.3614C21.3232 23.637 21.2073 23.9941 21.2073 24.4326V24.4608H23.829ZM26.0427 27.2516C25.9801 27.2516 25.9268 27.2328 25.883 27.1952C25.8454 27.1513 25.8266 27.0981 25.8266 27.0355V22.5909C25.8266 22.5283 25.8454 22.475 25.883 22.4312C25.9268 22.3873 25.9801 22.3654 26.0427 22.3654H26.4374C26.5063 22.3654 26.5595 22.3873 26.5971 22.4312C26.641 22.4687 26.6629 22.522 26.6629 22.5909V23.0043C26.9197 22.5784 27.3551 22.3654 27.969 22.3654H28.3355C28.4044 22.3654 28.4576 22.3842 28.4952 22.4218C28.5328 22.4593 28.5516 22.5126 28.5516 22.5815V22.9292C28.5516 22.9918 28.5328 23.0451 28.4952 23.0889C28.4576 23.1265 28.4044 23.1453 28.3355 23.1453H27.7999C27.4553 23.1453 27.1828 23.2455 26.9824 23.446C26.7882 23.6464 26.6911 23.9189 26.6911 24.2635V27.0355C26.6911 27.0981 26.6692 27.1513 26.6253 27.1952C26.5815 27.2328 26.5282 27.2516 26.4656 27.2516H26.0427ZM31.0321 27.3455C30.5998 27.3455 30.2334 27.2766 29.9327 27.1388C29.6382 26.9947 29.419 26.8319 29.2749 26.6502C29.1308 26.4685 29.0588 26.3182 29.0588 26.1992C29.0588 26.1365 29.0807 26.0895 29.1246 26.0582C29.1684 26.0206 29.2154 26.0018 29.2655 26.0018H29.6602C29.6978 26.0018 29.7259 26.0081 29.7447 26.0206C29.7698 26.0332 29.8011 26.0613 29.8387 26.1052C29.9828 26.2806 30.1425 26.4184 30.3179 26.5186C30.4996 26.6189 30.7408 26.669 31.0415 26.669C31.3797 26.669 31.6491 26.6063 31.8496 26.4811C32.0563 26.3558 32.1596 26.1741 32.1596 25.9361C32.1596 25.7795 32.1158 25.6542 32.0281 25.5602C31.9404 25.4662 31.7932 25.3817 31.5865 25.3065C31.386 25.2313 31.0853 25.1499 30.6844 25.0622C30.1394 24.9432 29.7541 24.7709 29.5286 24.5454C29.3031 24.3199 29.1903 24.0286 29.1903 23.6715C29.1903 23.4397 29.2593 23.2173 29.3971 23.0043C29.5349 22.7851 29.7385 22.6097 30.0078 22.4781C30.2835 22.3403 30.6092 22.2714 30.9851 22.2714C31.3797 22.2714 31.7149 22.3372 31.9905 22.4687C32.2724 22.6003 32.4823 22.7538 32.6201 22.9292C32.7642 23.1046 32.8362 23.2518 32.8362 23.3708C32.8362 23.4272 32.8143 23.4742 32.7704 23.5118C32.7328 23.5493 32.6858 23.5681 32.6295 23.5681H32.2724C32.1847 23.5681 32.1221 23.5337 32.0845 23.4648C31.978 23.3458 31.8871 23.2549 31.812 23.1923C31.7431 23.1234 31.6397 23.067 31.5019 23.0231C31.3641 22.973 31.1918 22.948 30.9851 22.948C30.6781 22.948 30.4432 23.0137 30.2803 23.1453C30.1175 23.2706 30.036 23.4397 30.036 23.6527C30.036 23.7843 30.0705 23.897 30.1394 23.991C30.2083 24.0787 30.3399 24.1633 30.534 24.2447C30.7282 24.3199 31.0164 24.3982 31.3985 24.4796C31.9936 24.6049 32.4133 24.7834 32.6577 25.0152C32.9082 25.247 33.0335 25.5445 33.0335 25.9079C33.0335 26.1772 32.9552 26.4215 32.7986 26.6408C32.6483 26.8601 32.4196 27.0323 32.1127 27.1576C31.812 27.2829 31.4518 27.3455 31.0321 27.3455Z" fill="#4F5665"/>
<path d="M4.04775 11.9368C3.33518 11.9368 2.72049 11.8233 2.20368 11.5962C1.69471 11.3691 1.3071 11.0676 1.04086 10.6918C0.78246 10.3159 0.645428 9.90482 0.629767 9.45849C0.629767 9.38801 0.653258 9.32929 0.700241 9.2823C0.747223 9.23532 0.805951 9.21183 0.876425 9.21183H2.53256C2.72049 9.21183 2.84969 9.28622 2.92017 9.435C3.02979 9.6934 3.17466 9.88133 3.35476 9.99879C3.54269 10.1162 3.77368 10.175 4.04775 10.175C4.38446 10.175 4.66244 10.0732 4.88169 9.86959C5.10877 9.666 5.22231 9.38018 5.22231 9.01215C5.22231 8.69111 5.11269 8.42487 4.89343 8.21345C4.67418 8.00203 4.39229 7.89632 4.04775 7.89632C3.85199 7.89632 3.69538 7.92372 3.57792 7.97854C3.46047 8.02552 3.34693 8.09208 3.2373 8.17821C3.11984 8.27218 3.01805 8.31916 2.93191 8.31916H1.29927C1.22879 8.31916 1.16615 8.29567 1.11134 8.24869C1.06436 8.19387 1.04086 8.13123 1.04086 8.06076L1.47545 3.93804C1.48328 3.82841 1.52244 3.74228 1.59291 3.67963C1.67121 3.61699 1.76126 3.58567 1.86306 3.58567H6.64354C6.72967 3.58567 6.80014 3.61307 6.85496 3.66789C6.90977 3.7227 6.93718 3.79317 6.93718 3.87931V5.05387C6.93718 5.13218 6.90977 5.20265 6.85496 5.26529C6.80014 5.32011 6.72967 5.34751 6.64354 5.34751H3.22555L3.08461 6.79223C3.27254 6.65911 3.48396 6.56123 3.71887 6.49859C3.95378 6.42811 4.25917 6.39288 4.63503 6.39288C5.13618 6.39288 5.606 6.50642 6.04451 6.7335C6.48301 6.95275 6.83147 7.26597 7.08987 7.67315C7.3561 8.08033 7.48922 8.54624 7.48922 9.07088C7.48922 9.61901 7.35219 10.1123 7.07812 10.5508C6.80406 10.9815 6.40471 11.3221 5.88007 11.5727C5.36326 11.8154 4.75249 11.9368 4.04775 11.9368ZM11.9099 11.9251C10.8293 11.9172 10.0071 11.6314 9.44331 11.0676C8.87952 10.5039 8.57022 9.75996 8.51541 8.83597C8.49974 8.41313 8.49191 8.03335 8.49191 7.69664C8.49191 7.3521 8.49974 6.96058 8.51541 6.52208C8.54673 5.9348 8.69159 5.41407 8.94999 4.95991C9.21623 4.49791 9.596 4.1338 10.0893 3.86756C10.5905 3.60133 11.1973 3.46821 11.9099 3.46821C12.6225 3.46821 13.2293 3.60133 13.7305 3.86756C14.2316 4.1338 14.6114 4.49791 14.8698 4.95991C15.136 5.41407 15.2848 5.9348 15.3161 6.52208C15.3318 6.74133 15.3396 7.13285 15.3396 7.69664C15.3396 8.24477 15.3318 8.62455 15.3161 8.83597C15.2613 9.75996 14.952 10.5039 14.3882 11.0676C13.8244 11.6314 12.9983 11.9172 11.9099 11.9251ZM11.9099 10.1515C12.2779 10.1515 12.552 10.034 12.7321 9.79911C12.9122 9.55637 13.0101 9.21575 13.0257 8.77724C13.0414 8.55016 13.0492 8.18213 13.0492 7.67315C13.0492 7.16417 13.0414 6.80397 13.0257 6.59255C13.0101 6.16971 12.9122 5.83692 12.7321 5.59417C12.552 5.3436 12.2779 5.21831 11.9099 5.21831C11.2052 5.21831 10.8332 5.67639 10.7941 6.59255C10.7862 6.80397 10.7823 7.16417 10.7823 7.67315C10.7823 8.18213 10.7862 8.55016 10.7941 8.77724C10.8332 9.6934 11.2052 10.1515 11.9099 10.1515ZM18.9877 11.42C18.9094 11.42 18.839 11.3926 18.7763 11.3378C18.7215 11.2751 18.6941 11.2047 18.6941 11.1264V9.00041H16.6269C16.5486 9.00041 16.4781 8.973 16.4155 8.91819C16.3606 8.85555 16.3332 8.78507 16.3332 8.70677V7.80235C16.3332 7.71622 16.3606 7.64574 16.4155 7.59093C16.4703 7.52829 16.5407 7.49697 16.6269 7.49697H18.6941V5.44148C18.6941 5.35534 18.7215 5.28487 18.7763 5.23006C18.839 5.17524 18.9094 5.14784 18.9877 5.14784H19.9979C20.084 5.14784 20.1545 5.17524 20.2093 5.23006C20.2719 5.28487 20.3033 5.35534 20.3033 5.44148V7.49697H22.347C22.4331 7.49697 22.5036 7.52829 22.5584 7.59093C22.6211 7.64574 22.6524 7.71622 22.6524 7.80235V8.70677C22.6524 8.7929 22.6211 8.86338 22.5584 8.91819C22.5036 8.973 22.4331 9.00041 22.347 9.00041H20.3033V11.1264C20.3033 11.2125 20.2719 11.283 20.2093 11.3378C20.1545 11.3926 20.084 11.42 19.9979 11.42H18.9877Z" fill="#0B132A"/>
</svg>
