<svg width="44" height="32" viewBox="0 0 44 32" fill="none" xmlns="http://www.w3.org/2000/svg">
<path d="M1.364 27.2516C1.30136 27.2516 1.25124 27.2328 1.21366 27.1952C1.17607 27.1513 1.15728 27.0981 1.15728 27.0355V20.8901C1.15728 20.8275 1.17607 20.7774 1.21366 20.7398C1.25124 20.6959 1.30136 20.674 1.364 20.674H1.83383C1.89647 20.674 1.94658 20.6959 1.98417 20.7398C2.02176 20.7774 2.04055 20.8275 2.04055 20.8901V26.4623H5.17898C5.24789 26.4623 5.30114 26.4842 5.33873 26.528C5.38258 26.5656 5.4045 26.6157 5.4045 26.6784V27.0355C5.4045 27.0981 5.38258 27.1513 5.33873 27.1952C5.29487 27.2328 5.24163 27.2516 5.17898 27.2516H1.364ZM8.18403 27.3455C7.49496 27.3455 6.96249 27.1513 6.58663 26.763C6.21703 26.3746 6.0197 25.8578 5.99465 25.2125L5.98525 24.8085L5.99465 24.4044C6.0197 23.7592 6.22016 23.2424 6.59602 22.854C6.97815 22.4656 7.50748 22.2714 8.18403 22.2714C8.86058 22.2714 9.38679 22.4656 9.76265 22.854C10.1448 23.2424 10.3484 23.7592 10.3734 24.4044C10.3859 24.5422 10.3922 24.6769 10.3922 24.8085C10.3922 24.94 10.3859 25.0747 10.3734 25.2125C10.3484 25.8578 10.1479 26.3746 9.77204 26.763C9.40245 27.1513 8.87311 27.3455 8.18403 27.3455ZM8.18403 26.6408C8.58495 26.6408 8.9013 26.5155 9.13308 26.2649C9.37113 26.0081 9.49954 25.6416 9.51834 25.1655C9.5246 25.1029 9.52773 24.9839 9.52773 24.8085C9.52773 24.6331 9.5246 24.5141 9.51834 24.4514C9.49954 23.9753 9.37113 23.612 9.13308 23.3614C8.9013 23.1046 8.58495 22.9762 8.18403 22.9762C7.78312 22.9762 7.46363 23.1046 7.22559 23.3614C6.99381 23.612 6.86852 23.9753 6.84973 24.4514L6.84033 24.8085L6.84973 25.1655C6.86852 25.6416 6.99381 26.0081 7.22559 26.2649C7.46363 26.5155 7.78312 26.6408 8.18403 26.6408ZM13.5331 27.3455C12.8629 27.3455 12.3398 27.1576 11.9639 26.7817C11.5881 26.3996 11.3907 25.8672 11.3719 25.1843L11.3626 24.8085L11.3719 24.4326C11.3907 23.7498 11.5881 23.2205 11.9639 22.8446C12.3398 22.4625 12.8629 22.2714 13.5331 22.2714C13.9842 22.2714 14.3632 22.3529 14.6701 22.5157C14.9833 22.6723 15.2151 22.8697 15.3655 23.1077C15.5221 23.3458 15.6066 23.5838 15.6192 23.8218C15.6254 23.8782 15.6035 23.9283 15.5534 23.9722C15.5095 24.016 15.4594 24.038 15.4031 24.038H14.9896C14.927 24.038 14.88 24.0254 14.8487 24.0004C14.8173 23.9691 14.786 23.9158 14.7547 23.8406C14.6419 23.5337 14.4853 23.3176 14.2849 23.1923C14.0907 23.0607 13.8432 22.995 13.5425 22.995C13.1479 22.995 12.8347 23.1171 12.6029 23.3614C12.3711 23.6057 12.2458 23.9785 12.227 24.4796L12.2176 24.8085L12.227 25.1374C12.2458 25.6385 12.3711 26.0112 12.6029 26.2555C12.8347 26.4999 13.1479 26.622 13.5425 26.622C13.8495 26.622 14.1001 26.5594 14.2943 26.4341C14.4885 26.3025 14.6419 26.0833 14.7547 25.7763C14.786 25.7011 14.8173 25.651 14.8487 25.626C14.88 25.5947 14.927 25.579 14.9896 25.579H15.4031C15.4594 25.579 15.5095 25.6009 15.5534 25.6448C15.6035 25.6886 15.6254 25.7387 15.6192 25.7951C15.6066 26.0269 15.5221 26.2618 15.3655 26.4999C15.2151 26.7379 14.9833 26.9384 14.6701 27.1012C14.3632 27.2641 13.9842 27.3455 13.5331 27.3455ZM18.098 27.3455C17.7911 27.3455 17.506 27.2829 17.2429 27.1576C16.9861 27.0323 16.7794 26.8632 16.6228 26.6502C16.4724 26.4309 16.3972 26.1898 16.3972 25.9267C16.3972 25.5132 16.5664 25.1749 16.9047 24.9118C17.2429 24.6487 17.7034 24.4733 18.2859 24.3856L19.6954 24.1883V23.9158C19.6954 23.2706 19.3227 22.948 18.5772 22.948C18.2891 22.948 18.0573 23.0075 17.8819 23.1265C17.7065 23.2393 17.5781 23.3739 17.4966 23.5306C17.4716 23.5932 17.4434 23.637 17.4121 23.6621C17.387 23.6809 17.3494 23.6903 17.2993 23.6903H16.9328C16.8765 23.6903 16.8264 23.6715 16.7825 23.6339C16.7449 23.5901 16.7261 23.5399 16.7261 23.4836C16.7261 23.3395 16.7919 23.1735 16.9235 22.9856C17.0613 22.7914 17.2711 22.6254 17.553 22.4875C17.8349 22.3435 18.1795 22.2714 18.5866 22.2714C19.2882 22.2714 19.7894 22.4343 20.0901 22.76C20.397 23.0858 20.5505 23.493 20.5505 23.9816V27.0355C20.5505 27.0981 20.5286 27.1513 20.4847 27.1952C20.4471 27.2328 20.397 27.2516 20.3344 27.2516H19.9209C19.8583 27.2516 19.8082 27.2328 19.7706 27.1952C19.733 27.1513 19.7142 27.0981 19.7142 27.0355V26.622C19.5764 26.8287 19.3759 27.001 19.1128 27.1388C18.8497 27.2766 18.5115 27.3455 18.098 27.3455ZM18.2859 26.6596C18.6994 26.6596 19.0377 26.5249 19.3008 26.2555C19.5639 25.9862 19.6954 25.5947 19.6954 25.081V24.8179L18.596 24.9776C18.145 25.0403 17.8036 25.1468 17.5718 25.2971C17.34 25.4474 17.2241 25.6354 17.2241 25.8609C17.2241 26.1177 17.3275 26.3151 17.5342 26.4529C17.7472 26.5907 17.9978 26.6596 18.2859 26.6596ZM23.7446 27.2516C22.7736 27.2516 22.2881 26.7034 22.2881 25.6072V23.0889H21.5458C21.4832 23.0889 21.433 23.0701 21.3955 23.0325C21.3579 22.995 21.3391 22.9448 21.3391 22.8822V22.5815C21.3391 22.5189 21.3579 22.4687 21.3955 22.4312C21.433 22.3873 21.4832 22.3654 21.5458 22.3654H22.2881V20.7962C22.2881 20.7335 22.3069 20.6834 22.3445 20.6458C22.3821 20.602 22.4322 20.58 22.4948 20.58H22.9083C22.9709 20.58 23.0211 20.602 23.0586 20.6458C23.1025 20.6834 23.1244 20.7335 23.1244 20.7962V22.3654H24.2896C24.3522 22.3654 24.4023 22.3873 24.4399 22.4312C24.4838 22.4687 24.5057 22.5189 24.5057 22.5815V22.8822C24.5057 22.9448 24.4838 22.995 24.4399 23.0325C24.4023 23.0701 24.3522 23.0889 24.2896 23.0889H23.1244V25.5414C23.1244 25.8609 23.1745 26.1021 23.2748 26.2649C23.3813 26.4278 23.5598 26.5092 23.8104 26.5092H24.3835C24.4462 26.5092 24.4963 26.5312 24.5339 26.575C24.5715 26.6126 24.5903 26.6627 24.5903 26.7254V27.0355C24.5903 27.0981 24.5715 27.1513 24.5339 27.1952C24.4963 27.2328 24.4462 27.2516 24.3835 27.2516H23.7446ZM25.6492 21.4445C25.5866 21.4445 25.5333 21.4257 25.4895 21.3881C25.4519 21.3443 25.4331 21.291 25.4331 21.2284V20.7398C25.4331 20.6771 25.4519 20.6239 25.4895 20.58C25.5333 20.5362 25.5866 20.5143 25.6492 20.5143H26.2036C26.2663 20.5143 26.3195 20.5362 26.3633 20.58C26.4072 20.6239 26.4291 20.6771 26.4291 20.7398V21.2284C26.4291 21.291 26.4072 21.3443 26.3633 21.3881C26.3195 21.4257 26.2663 21.4445 26.2036 21.4445H25.6492ZM25.7244 27.2516C25.6617 27.2516 25.6085 27.2328 25.5646 27.1952C25.5271 27.1513 25.5083 27.0981 25.5083 27.0355V22.5815C25.5083 22.5189 25.5271 22.4687 25.5646 22.4312C25.6085 22.3873 25.6617 22.3654 25.7244 22.3654H26.1378C26.2005 22.3654 26.2506 22.3873 26.2882 22.4312C26.332 22.4687 26.354 22.5189 26.354 22.5815V27.0355C26.354 27.0981 26.332 27.1513 26.2882 27.1952C26.2506 27.2328 26.2005 27.2516 26.1378 27.2516H25.7244ZM29.7483 27.3455C29.0592 27.3455 28.5268 27.1513 28.1509 26.763C27.7813 26.3746 27.584 25.8578 27.5589 25.2125L27.5495 24.8085L27.5589 24.4044C27.584 23.7592 27.7844 23.2424 28.1603 22.854C28.5424 22.4656 29.0717 22.2714 29.7483 22.2714C30.4248 22.2714 30.9511 22.4656 31.3269 22.854C31.709 23.2424 31.9126 23.7592 31.9377 24.4044C31.9502 24.5422 31.9565 24.6769 31.9565 24.8085C31.9565 24.94 31.9502 25.0747 31.9377 25.2125C31.9126 25.8578 31.7122 26.3746 31.3363 26.763C30.9667 27.1513 30.4374 27.3455 29.7483 27.3455ZM29.7483 26.6408C30.1492 26.6408 30.4656 26.5155 30.6973 26.2649C30.9354 26.0081 31.0638 25.6416 31.0826 25.1655C31.0889 25.1029 31.092 24.9839 31.092 24.8085C31.092 24.6331 31.0889 24.5141 31.0826 24.4514C31.0638 23.9753 30.9354 23.612 30.6973 23.3614C30.4656 23.1046 30.1492 22.9762 29.7483 22.9762C29.3474 22.9762 29.0279 23.1046 28.7899 23.3614C28.5581 23.612 28.4328 23.9753 28.414 24.4514L28.4046 24.8085L28.414 25.1655C28.4328 25.6416 28.5581 26.0081 28.7899 26.2649C29.0279 26.5155 29.3474 26.6408 29.7483 26.6408ZM33.3591 27.2516C33.2964 27.2516 33.2432 27.2328 33.1993 27.1952C33.1617 27.1513 33.1429 27.0981 33.1429 27.0355V22.5815C33.1429 22.5189 33.1617 22.4687 33.1993 22.4312C33.2432 22.3873 33.2964 22.3654 33.3591 22.3654H33.7631C33.832 22.3654 33.8853 22.3842 33.9228 22.4218C33.9604 22.4593 33.9792 22.5126 33.9792 22.5815V22.995C34.1672 22.7632 34.3833 22.5846 34.6276 22.4593C34.8782 22.3341 35.1882 22.2714 35.5578 22.2714C36.1592 22.2714 36.6259 22.4656 36.9579 22.854C37.2899 23.2361 37.4559 23.7435 37.4559 24.3762V27.0355C37.4559 27.0981 37.434 27.1513 37.3902 27.1952C37.3526 27.2328 37.3025 27.2516 37.2398 27.2516H36.8076C36.7449 27.2516 36.6917 27.2328 36.6478 27.1952C36.6102 27.1513 36.5915 27.0981 36.5915 27.0355V24.4326C36.5915 23.9816 36.4818 23.6308 36.2626 23.3802C36.0433 23.1296 35.7301 23.0043 35.3229 23.0043C34.922 23.0043 34.6025 23.1328 34.3645 23.3896C34.1264 23.6402 34.0074 23.9878 34.0074 24.4326V27.0355C34.0074 27.0981 33.9855 27.1513 33.9416 27.1952C33.9041 27.2328 33.8539 27.2516 33.7913 27.2516H33.3591ZM40.4865 27.3455C40.0542 27.3455 39.6878 27.2766 39.3871 27.1388C39.0926 26.9947 38.8734 26.8319 38.7293 26.6502C38.5852 26.4685 38.5132 26.3182 38.5132 26.1992C38.5132 26.1365 38.5351 26.0895 38.579 26.0582C38.6228 26.0206 38.6698 26.0018 38.7199 26.0018H39.1146C39.1522 26.0018 39.1803 26.0081 39.1991 26.0206C39.2242 26.0332 39.2555 26.0613 39.2931 26.1052C39.4372 26.2806 39.5969 26.4184 39.7723 26.5186C39.954 26.6189 40.1952 26.669 40.4959 26.669C40.8341 26.669 41.1035 26.6063 41.304 26.4811C41.5107 26.3558 41.614 26.1741 41.614 25.9361C41.614 25.7795 41.5702 25.6542 41.4825 25.5602C41.3948 25.4662 41.2476 25.3817 41.0409 25.3065C40.8404 25.2313 40.5397 25.1499 40.1388 25.0622C39.5938 24.9432 39.2085 24.7709 38.983 24.5454C38.7575 24.3199 38.6447 24.0286 38.6447 23.6715C38.6447 23.4397 38.7136 23.2173 38.8515 23.0043C38.9893 22.7851 39.1929 22.6097 39.4622 22.4781C39.7379 22.3403 40.0636 22.2714 40.4395 22.2714C40.8341 22.2714 41.1693 22.3372 41.4449 22.4687C41.7268 22.6003 41.9367 22.7538 42.0745 22.9292C42.2185 23.1046 42.2906 23.2518 42.2906 23.3708C42.2906 23.4272 42.2687 23.4742 42.2248 23.5118C42.1872 23.5493 42.1402 23.5681 42.0839 23.5681H41.7268C41.6391 23.5681 41.5765 23.5337 41.5389 23.4648C41.4324 23.3458 41.3415 23.2549 41.2664 23.1923C41.1975 23.1234 41.0941 23.067 40.9563 23.0231C40.8185 22.973 40.6462 22.948 40.4395 22.948C40.1325 22.948 39.8976 23.0137 39.7347 23.1453C39.5719 23.2706 39.4904 23.4397 39.4904 23.6527C39.4904 23.7843 39.5249 23.897 39.5938 23.991C39.6627 24.0787 39.7942 24.1633 39.9884 24.2447C40.1826 24.3199 40.4708 24.3982 40.8529 24.4796C41.448 24.6049 41.8677 24.7834 42.1121 25.0152C42.3626 25.247 42.4879 25.5445 42.4879 25.9079C42.4879 26.1772 42.4096 26.4215 42.253 26.6408C42.1027 26.8601 41.874 27.0323 41.5671 27.1576C41.2664 27.2829 40.9062 27.3455 40.4865 27.3455Z" fill="#4F5665"/>
<path d="M4.17103 11.9251C3.40364 11.9251 2.75763 11.8076 2.23299 11.5727C1.71619 11.33 1.33249 11.0324 1.08192 10.68C0.839178 10.3277 0.709976 9.9753 0.694315 9.62293C0.694315 9.55245 0.717806 9.49373 0.764789 9.44674C0.819602 9.39976 0.882245 9.37627 0.952719 9.37627H2.57362C2.66758 9.37627 2.74197 9.39585 2.79679 9.435C2.8516 9.46632 2.9025 9.52113 2.94948 9.59944C3.09826 9.98313 3.50935 10.175 4.18277 10.175C4.56646 10.175 4.86402 10.0849 5.07544 9.90482C5.28686 9.72472 5.39257 9.48198 5.39257 9.17659C5.39257 8.58931 5.00105 8.29567 4.21801 8.29567H2.9025C2.81636 8.29567 2.74197 8.26826 2.67933 8.21345C2.62452 8.15081 2.59711 8.07642 2.59711 7.99028V7.29729C2.59711 7.11719 2.66367 6.98407 2.79679 6.89794L4.68783 5.34751H1.44604C1.36773 5.34751 1.29726 5.32011 1.23461 5.26529C1.1798 5.20265 1.1524 5.13218 1.1524 5.05387V3.89105C1.1524 3.80492 1.1798 3.73445 1.23461 3.67963C1.28943 3.61699 1.3599 3.58567 1.44604 3.58567H6.91951C7.00564 3.58567 7.07611 3.61699 7.13093 3.67963C7.18574 3.73445 7.21315 3.80492 7.21315 3.89105V4.93642C7.21315 5.10086 7.1505 5.23006 7.02522 5.32402L5.28686 6.90968L5.36908 6.93318C6.07382 7.03497 6.6337 7.27771 7.04871 7.66141C7.46372 8.0451 7.67123 8.59714 7.67123 9.31754C7.67123 9.84218 7.51853 10.3042 7.21315 10.7035C6.91559 11.095 6.50058 11.3965 5.96811 11.6079C5.44347 11.8194 4.84444 11.9251 4.17103 11.9251ZM12.1468 11.9251C11.0662 11.9172 10.244 11.6314 9.68019 11.0676C9.1164 10.5039 8.8071 9.75996 8.75228 8.83597C8.73662 8.41313 8.72879 8.03335 8.72879 7.69664C8.72879 7.3521 8.73662 6.96058 8.75228 6.52208C8.78361 5.9348 8.92847 5.41407 9.18687 4.95991C9.45311 4.49791 9.83288 4.1338 10.3262 3.86756C10.8273 3.60133 11.4342 3.46821 12.1468 3.46821C12.8593 3.46821 13.4662 3.60133 13.9673 3.86756C14.4685 4.1338 14.8483 4.49791 15.1067 4.95991C15.3729 5.41407 15.5217 5.9348 15.553 6.52208C15.5687 6.74133 15.5765 7.13285 15.5765 7.69664C15.5765 8.24477 15.5687 8.62455 15.553 8.83597C15.4982 9.75996 15.1889 10.5039 14.6251 11.0676C14.0613 11.6314 13.2352 11.9172 12.1468 11.9251ZM12.1468 10.1515C12.5148 10.1515 12.7889 10.034 12.969 9.79911C13.1491 9.55637 13.247 9.21575 13.2626 8.77724C13.2783 8.55016 13.2861 8.18213 13.2861 7.67315C13.2861 7.16417 13.2783 6.80397 13.2626 6.59255C13.247 6.16971 13.1491 5.83692 12.969 5.59417C12.7889 5.3436 12.5148 5.21831 12.1468 5.21831C11.442 5.21831 11.0701 5.67639 11.0309 6.59255C11.0231 6.80397 11.0192 7.16417 11.0192 7.67315C11.0192 8.18213 11.0231 8.55016 11.0309 8.77724C11.0701 9.6934 11.442 10.1515 12.1468 10.1515ZM19.2246 11.42C19.1463 11.42 19.0758 11.3926 19.0132 11.3378C18.9584 11.2751 18.931 11.2047 18.931 11.1264V9.00041H16.8638C16.7854 9.00041 16.715 8.973 16.6523 8.91819C16.5975 8.85555 16.5701 8.78507 16.5701 8.70677V7.80235C16.5701 7.71622 16.5975 7.64574 16.6523 7.59093C16.7071 7.52829 16.7776 7.49697 16.8638 7.49697H18.931V5.44148C18.931 5.35534 18.9584 5.28487 19.0132 5.23006C19.0758 5.17524 19.1463 5.14784 19.2246 5.14784H20.2348C20.3209 5.14784 20.3914 5.17524 20.4462 5.23006C20.5088 5.28487 20.5401 5.35534 20.5401 5.44148V7.49697H22.5839C22.67 7.49697 22.7405 7.52829 22.7953 7.59093C22.8579 7.64574 22.8893 7.71622 22.8893 7.80235V8.70677C22.8893 8.7929 22.8579 8.86338 22.7953 8.91819C22.7405 8.973 22.67 9.00041 22.5839 9.00041H20.5401V11.1264C20.5401 11.2125 20.5088 11.283 20.4462 11.3378C20.3914 11.3926 20.3209 11.42 20.2348 11.42H19.2246Z" fill="#0B132A"/>
</svg>
