<svg width="17" height="16" viewBox="0 0 17 16" fill="none" xmlns="http://www.w3.org/2000/svg">
<path d="M11.2548 8.08448C11.2548 8.73866 10.9949 9.36604 10.5323 9.82862C10.0697 10.2912 9.44236 10.5511 8.78818 10.5511C8.13401 10.5511 7.50662 10.2912 7.04404 9.82862C6.58147 9.36604 6.3216 8.73866 6.3216 8.08448C6.3216 7.94388 6.3364 7.80658 6.36189 7.67338H5.4994V10.9597C5.4994 11.1883 5.6844 11.3733 5.91297 11.3733H11.6642C11.7738 11.373 11.8787 11.3294 11.9561 11.2518C12.0335 11.1743 12.077 11.0692 12.077 10.9597V7.67338H11.2145C11.24 7.80658 11.2548 7.94388 11.2548 8.08448ZM8.78818 9.72887C9.00418 9.72882 9.21805 9.68622 9.41759 9.60351C9.61713 9.5208 9.79842 9.3996 9.95111 9.24683C10.1038 9.09406 10.2249 8.9127 10.3075 8.71313C10.3901 8.51355 10.4326 8.29965 10.4326 8.08366C10.4325 7.86766 10.3899 7.65379 10.3072 7.45425C10.2245 7.25471 10.1033 7.07342 9.95053 6.92073C9.79776 6.76803 9.61641 6.64692 9.41683 6.56431C9.21725 6.4817 9.00336 6.43921 8.78736 6.43927C8.35113 6.43938 7.93282 6.61277 7.62443 6.92131C7.31605 7.22985 7.14286 7.64825 7.14297 8.08448C7.14308 8.52071 7.31648 8.93903 7.62501 9.24741C7.93355 9.55579 8.35196 9.72898 8.78818 9.72887ZM10.7615 6.35787H11.7473C11.8128 6.35787 11.8756 6.33191 11.922 6.28567C11.9684 6.23944 11.9945 6.1767 11.9947 6.11121V5.1254C11.9947 5.05976 11.9687 4.99682 11.9223 4.9504C11.8758 4.90399 11.8129 4.87792 11.7473 4.87792H10.7615C10.6958 4.87792 10.6329 4.90399 10.5865 4.9504C10.54 4.99682 10.514 5.05976 10.514 5.1254V6.11121C10.5148 6.24687 10.6258 6.35787 10.7615 6.35787ZM8.78818 0.191406C6.69481 0.191406 4.68718 1.023 3.20694 2.50323C1.7267 3.98347 0.895111 5.99111 0.895111 8.08448C0.895111 10.1779 1.7267 12.1855 3.20694 13.6657C4.68718 15.146 6.69481 15.9776 8.78818 15.9776C9.82472 15.9776 10.8511 15.7734 11.8087 15.3767C12.7664 14.9801 13.6365 14.3987 14.3694 13.6657C15.1024 12.9328 15.6838 12.0627 16.0804 11.105C16.4771 10.1474 16.6813 9.12101 16.6813 8.08448C16.6813 7.04795 16.4771 6.02156 16.0804 5.06393C15.6838 4.1063 15.1024 3.23617 14.3694 2.50323C13.6365 1.77029 12.7664 1.18889 11.8087 0.792231C10.8511 0.395567 9.82472 0.191406 8.78818 0.191406ZM12.8992 11.282C12.8992 11.7844 12.4881 12.1955 11.9857 12.1955H5.59067C5.08831 12.1955 4.67721 11.7844 4.67721 11.282V4.88696C4.67721 4.3846 5.08831 3.9735 5.59067 3.9735H11.9857C12.4881 3.9735 12.8992 4.3846 12.8992 4.88696V11.282Z" fill="white"/>
</svg>
