<svg width="17" height="16" viewBox="0 0 17 16" fill="none" xmlns="http://www.w3.org/2000/svg">
<path d="M8.60547 0.191406C4.2462 0.191406 0.712402 3.7252 0.712402 8.08448C0.712402 12.4438 4.2462 15.9776 8.60547 15.9776C12.9648 15.9776 16.4985 12.4438 16.4985 8.08448C16.4985 3.7252 12.9648 0.191406 8.60547 0.191406ZM11.8161 6.65715C11.8194 6.72457 11.8203 6.79199 11.8203 6.85776C11.8203 8.91325 10.2573 11.282 7.39767 11.282C6.5527 11.2834 5.7253 11.0407 5.01495 10.5831C5.13581 10.5979 5.25996 10.6037 5.38576 10.6037C6.11422 10.6037 6.78431 10.3562 7.31627 9.93853C6.99209 9.93216 6.67798 9.82482 6.4177 9.63145C6.15743 9.43809 5.96397 9.16834 5.86428 8.85981C6.09708 8.90408 6.33692 8.8948 6.56561 8.83268C6.21375 8.76153 5.89733 8.57087 5.67 8.29304C5.44267 8.01521 5.31843 7.66731 5.31834 7.30833V7.28942C5.528 7.40535 5.76808 7.47605 6.02296 7.48428C5.69309 7.26469 5.45958 6.92738 5.37017 6.54133C5.28077 6.15528 5.34222 5.74965 5.54198 5.40741C5.93248 5.88757 6.41947 6.28037 6.97142 6.56038C7.52336 6.84039 8.12796 7.00137 8.74607 7.03289C8.66749 6.69933 8.70131 6.34916 8.84227 6.03681C8.98324 5.72445 9.22345 5.46742 9.52557 5.30568C9.82768 5.14393 10.1748 5.08653 10.5129 5.14239C10.851 5.19826 11.1612 5.36427 11.3952 5.6146C11.7431 5.54577 12.0768 5.41814 12.3818 5.23722C12.2659 5.59745 12.0231 5.90334 11.6986 6.09805C12.0068 6.06093 12.3077 5.97808 12.5915 5.85222C12.383 6.16457 12.1205 6.43716 11.8161 6.65715Z" fill="white"/>
</svg>
